<svg width="1878" height="460" viewBox="0 0 1878 460" fill="none" xmlns="http://www.w3.org/2000/svg">
<path d="M1631.34 330.901L1474.91 189.768C1510.98 203.608 1525.07 215.899 1633.69 299.146L1757.18 200.353V136.844L1632.51 33.346C1576.58 81.3918 1549.98 105.014 1489.03 143.9L1632.51 11L1776 123.906V208.586L1631.34 330.901Z" fill="black"/>
<path d="M1632.53 395.586L1442 216.818L1632.53 404.995L1828.94 212.113L1632.53 395.586Z" fill="black"/>
<path d="M317.637 367.037C309.819 371.796 300.812 376.384 290.615 380.803C280.418 385.222 269.201 388.621 256.964 391C244.728 393.719 231.472 395.079 217.196 395.079C189.664 395.079 164.682 390.32 142.248 380.803C119.815 370.946 100.61 357.69 84.6351 341.035C68.6598 324.04 56.2535 304.665 47.4161 282.912C38.9186 260.818 34.6698 237.365 34.6698 212.552C34.6698 186.04 39.2585 161.398 48.4358 138.624C57.6131 115.851 70.5293 95.9668 87.1844 78.9718C103.839 61.9768 123.214 48.7207 145.307 39.2035C167.401 29.6863 191.364 24.9277 217.196 24.9277C236.231 24.9277 254.075 27.4769 270.73 32.5754C287.385 37.6739 302.511 44.302 316.107 52.4596L305.4 75.4028C293.504 67.925 280.078 61.6369 265.122 56.5384C250.166 51.4399 234.361 48.8906 217.706 48.8906C196.292 48.8906 176.068 53.1394 157.034 61.6369C137.999 69.7945 121.174 81.3511 106.559 96.3067C92.2829 110.922 81.0662 128.087 72.9086 147.802C64.751 167.516 60.6722 188.759 60.6722 211.533C60.6722 233.286 64.2411 253.85 71.379 273.225C78.8568 292.599 89.3937 309.594 102.99 324.21C116.926 338.825 133.581 350.382 152.955 358.879C172.329 367.037 193.913 371.116 217.706 371.116C235.381 371.116 251.526 368.737 266.142 363.978C281.097 358.879 294.353 352.591 305.91 345.113L317.637 367.037ZM348.945 210.513C348.945 185.021 353.703 161.228 363.22 139.134C372.738 116.701 385.994 96.9865 402.989 79.9915C419.984 62.6566 439.528 49.2305 461.621 39.7133C484.055 29.8562 508.018 24.9277 533.51 24.9277C559.003 24.9277 582.966 29.8562 605.399 39.7133C627.833 49.2305 647.547 62.6566 664.542 79.9915C681.537 96.9865 694.793 116.701 704.31 139.134C714.167 161.228 719.096 185.021 719.096 210.513C719.096 236.006 714.167 259.969 704.31 282.402C694.793 304.495 681.537 324.04 664.542 341.035C647.547 358.03 627.833 371.286 605.399 380.803C582.966 390.32 559.003 395.079 533.51 395.079C508.018 395.079 484.055 390.49 461.621 381.313C439.528 372.136 419.984 359.219 402.989 342.564C385.994 325.909 372.738 306.365 363.22 283.931C353.703 261.498 348.945 237.025 348.945 210.513ZM374.437 211.023C374.437 233.116 378.516 253.85 386.673 273.225C394.831 292.599 406.218 309.594 420.833 324.21C435.449 338.825 452.274 350.382 471.309 358.879C490.683 367.037 511.247 371.116 533 371.116C555.434 371.116 576.338 367.037 595.712 358.879C615.086 350.382 632.081 338.825 646.697 324.21C661.313 309.594 672.699 292.599 680.857 273.225C689.354 253.85 693.603 232.946 693.603 210.513C693.603 188.42 689.354 167.686 680.857 148.311C672.699 128.597 661.313 111.432 646.697 96.8165C632.081 81.8609 615.086 70.1344 595.712 61.6369C576.338 53.1394 555.604 48.8906 533.51 48.8906C511.077 48.8906 490.173 53.3093 470.799 62.1467C451.424 70.6442 434.429 82.3708 419.814 97.3264C405.538 112.282 394.321 129.617 386.164 149.331C378.346 168.705 374.437 189.269 374.437 211.023ZM855.891 29.0065C869.487 29.0065 882.913 31.0459 896.169 35.1247C909.765 38.8636 922.001 44.9818 932.878 53.4793C944.095 61.6369 953.102 72.1738 959.9 85.09C966.698 98.0062 970.097 113.472 970.097 131.486C970.097 145.082 968.058 158.338 963.979 171.255C959.9 183.831 953.272 195.218 944.095 205.415C934.918 215.612 923.021 223.769 908.405 229.887C893.79 236.006 875.775 239.065 854.361 239.065H798.278V391H773.295V29.0065H855.891ZM852.832 215.102C870.846 215.102 885.802 212.552 897.699 207.454C909.595 202.355 918.942 195.727 925.74 187.57C932.538 179.412 937.297 170.575 940.016 161.058C943.075 151.201 944.605 141.683 944.605 132.506C944.605 121.629 942.565 111.432 938.487 101.915C934.748 92.3978 929.139 84.0703 921.661 76.9324C914.184 69.4546 905.176 63.6763 894.639 59.5975C884.103 55.1788 872.376 52.9694 859.46 52.9694H798.278V215.102H852.832ZM904.836 226.318L1005.28 391H976.215L875.265 226.828L904.836 226.318ZM1057.7 29.0065H1281.01V52.9694H1082.68V196.747H1261.13V220.71H1082.68V367.037H1288.15V391H1057.7V29.0065Z" fill="black"/>
</svg>
